:FULLY-SPECIFIED
:FORCE-ALL-JOINTS-BE-3DOF
:DEGREES
2446
root 2.31396 14.8912 -23.3732 918.311 88.9895 -161.068
lfemur -36.1818 19.6581 -13.1591
ltibia 71.3103 0 0
lfoot -25.6754 14.8973 0
ltoes -40.6761 0 0
rfemur -38.3916 -22.9226 11.3661
rtibia 61.7065 0 0
rfoot 10.7626 -2.66218 0
rtoes 0.0811948 0 0
lowerback 15.756 1.36484 -4.03296
upperback -0.913115 1.34382 2.62587
thorax -9.80218 0.946268 4.84562
lowerneck 3.59518 -15.1816 -16.8419
upperneck 0.703719 -21.0366 15.057
head 2.36823 -10.5733 6.40199
lclavicle 1.24243e-14 -7.26483e-15 0
lhumerus -45.3371 -39.9569 114.296
lradius 102.383 0 0
lwrist 64.7188 0 0
lhand -0.326102 401.67 0
lfingers 7.12502 0 0
lthumb 25.1526 -651.368 0
rclavicle 1.24243e-14 -7.26483e-15 0
rhumerus 29.5818 11.8374 -59.2641
rradius 116.225 0 0
rwrist 0.81982 0 0
rhand -31.1099 -404.074 0
rfingers 7.12502 0 0
rthumb -4.38275 286.336 0
2447
root 2.37655 14.8849 -23.3996 919.338 88.3864 -159.844
lfemur -35.7527 19.8001 -13.168
ltibia 71.5338 0 0
lfoot -25.872 15.1308 0
ltoes -40.4049 0 0
rfemur -38.5988 -22.761 10.9582
rtibia 60.5191 0 0
rfoot 11.2695 -2.28849 0
rtoes 0.592314 0 0
lowerback 15.7665 1.22993 -4.11245
upperback -0.914405 1.15916 2.71317
thorax -9.80015 0.865261 5.03241
lowerneck 3.52116 -14.9998 -16.7326
upperneck 0.917409 -20.7921 14.8091
head 2.43181 -10.4527 6.31268
lclavicle 1.2391e-14 -8.58829e-15 0
lhumerus -45.3521 -40.4715 114.192
lradius 102.98 0 0
lwrist 65.4656 0 0
lhand 0.679109 401.699 0
lfingers 7.12502 0 0
lthumb 26.1166 -651.452 0
rclavicle 1.2391e-14 -8.58829e-15 0
rhumerus 27.4026 10.7335 -60.3704
rradius 115.872 0 0
rwrist 3.37035 0 0
rhand -31.7404 -404.28 0
rfingers 7.12502 0 0
rthumb -4.99164 286.138 0
2448
root 2.44024 14.8775 -23.4252 920.357 87.7818 -158.632
lfemur -35.3285 19.944 -13.1747
ltibia 71.7695 0 0
lfoot -26.0741 15.3681 0
ltoes -40.1338 0 0
rfemur -38.8199 -22.6112 10.5542
rtibia 59.3516 0 0
rfoot 11.7547 -1.90751 0
rtoes 1.10533 0 0
lowerback 15.7773 1.09474 -4.19315
upperback -0.916599 0.973808 2.80005
thorax -9.79915 0.784046 5.21965
lowerneck 3.44881 -14.819 -16.6226
upperneck 1.13021 -20.5491 14.5615
head 2.49522 -10.3328 6.2233
lclavicle 1.23413e-14 -9.91368e-15 0
lhumerus -45.3723 -40.9788 114.088
lradius 103.575 0 0
lwrist 66.2178 0 0
lhand 1.67877 401.728 0
lfingers 7.12502 0 0
lthumb 27.0755 -651.535 0
rclavicle 1.23413e-14 -9.91368e-15 0
rhumerus 25.227 9.61539 -61.4703
rradius 115.489 0 0
rwrist 5.92699 0 0
rhand -32.3697 -404.489 0
rfingers 7.12502 0 0
rthumb -5.5994 285.937 0
2449
root 2.50515 14.8689 -23.4499 921.352 87.1817 -157.448
lfemur -34.9093 20.0907 -13.1786
ltibia 72.0167 0 0
lfoot -26.2834 15.6087 0
ltoes -39.8651 0 0
rfemur -39.0551 -22.4764 10.1546
rtibia 58.2069 0 0
rfoot 12.2176 -1.51758 0
rtoes 1.61987 0 0
lowerback 15.7882 0.959474 -4.27545
upperback -0.919737 0.787943 2.88643
thorax -9.79914 0.702736 5.40745
lowerneck 3.37896 -14.6412 -16.5133
upperneck 1.34118 -20.3105 14.3163
head 2.55823 -10.2152 6.13466
lclavicle 1.22768e-14 -1.12395e-14 0
lhumerus -45.4062 -41.4768 113.988
lradius 104.168 0 0
lwrist 66.9814 0 0
lhand 2.67326 401.757 0
lfingers 7.12502 0 0
lthumb 28.0294 -651.617 0
rclavicle 1.22768e-14 -1.12395e-14 0
rhumerus 23.0611 8.48044 -62.5604
rradius 115.075 0 0
rwrist 8.48693 0 0
rhand -32.9989 -404.701 0
rfingers 7.12502 0 0
rthumb -6.20694 285.733 0
2450
root 2.57138 14.859 -23.4737 922.31 86.5923 -156.305
lfemur -34.4954 20.2411 -13.1789
ltibia 72.2746 0 0
lfoot -26.5016 15.852 0
ltoes -39.6009 0 0
rfemur -39.3047 -22.3596 9.75963
rtibia 57.0879 0 0
rfoot 12.6576 -1.11703 0
rtoes 2.13559 0 0
lowerback 15.799 0.824343 -4.35977
upperback -0.923862 0.60174 2.97223
thorax -9.80008 0.621443 5.5959
lowerneck 3.31247 -14.4685 -16.4066
upperneck 1.54937 -20.0792 14.0758
head 2.62057 -10.1014 6.04757
lclavicle 1.21989e-14 -1.25642e-14 0
lhumerus -45.4621 -41.9637 113.898
lradius 104.757 0 0
lwrist 67.7622 0 0
lhand 3.66295 401.787 0
lfingers 7.12502 0 0
lthumb 28.9788 -651.696 0
rclavicle 1.21989e-14 -1.25642e-14 0
rhumerus 20.9113 7.32615 -63.6373
rradius 114.63 0 0
rwrist 11.0474 0 0
rhand -33.6287 -404.916 0
rfingers 7.12502 0 0
rthumb -6.81514 285.525 0
2451
root 2.63904 14.8478 -23.4962 923.217 86.0199 -155.219
lfemur -34.0868 20.3961 -13.1749
ltibia 72.5426 0 0
lfoot -26.7303 16.0974 0
ltoes -39.3433 0 0
rfemur -39.5688 -22.2641 9.36975
rtibia 55.9974 0 0
rfoot 13.0741 -0.704219 0
rtoes 2.65211 0 0
lowerback 15.8096 0.689547 -4.44649
upperback -0.929013 0.415375 3.05738
thorax -9.80195 0.540278 5.78514
lowerneck 3.25016 -14.3032 -16.304
upperneck 1.75382 -19.8583 13.8421
head 2.682 -9.99262 5.96284
lclavicle 1.21089e-14 -1.38864e-14 0
lhumerus -45.5484 -42.4376 113.823
lradius 105.339 0 0
lwrist 68.5662 0 0
lhand 4.64821 401.817 0
lfingers 7.12502 0 0
lthumb 29.924 -651.774 0
rclavicle 1.21089e-14 -1.38864e-14 0
rhumerus 18.7838 6.15001 -64.6977
rradius 114.154 0 0
rwrist 13.6055 0 0
rhand -34.2601 -405.134 0
rfingers 7.12502 0 0
rthumb -7.42489 285.314 0
2452
root 2.70823 14.8352 -23.5175 924.057 85.4705 -154.205
lfemur -33.6836 20.5566 -13.1661
ltibia 72.82 0 0
lfoot -26.9712 16.3445 0
ltoes -39.0946 0 0
rfemur -39.8477 -22.193 8.98531
rtibia 54.9381 0 0
rfoot 13.4666 -0.277475 0
rtoes 3.16908 0 0
lowerback 15.8199 0.55529 -4.53603
upperback -0.935233 0.229025 3.1418
thorax -9.8047 0.459355 5.97526
lowerneck 3.1929 -14.1473 -16.2071
upperneck 1.9536 -19.6506 13.6176
head 2.74227 -9.89049 5.88127
lclavicle 1.20083e-14 -1.52044e-14 0
lhumerus -45.6734 -42.8965 113.768
lradius 105.914 0 0
lwrist 69.3992 0 0
lhand 5.62941 401.847 0
lfingers 7.12502 0 0
lthumb 30.8655 -651.849 0
rclavicle 1.20083e-14 -1.52044e-14 0
rhumerus 16.6849 4.94947 -65.7384
rradius 113.646 0 0
rwrist 16.1586 0 0
rhand -34.8941 -405.356 0
rfingers 7.12502 0 0
rthumb -8.0371 285.099 0
2453
root 2.77906 14.821 -23.5373 924.818 84.9503 -153.276
lfemur -33.2861 20.7235 -13.1516
ltibia 73.1059 0 0
lfoot -27.226 16.5927 0
ltoes -38.8567 0 0
rfemur -40.1416 -22.1493 8.60667
rtibia 53.9129 0 0
rfoot 13.8345 0.164858 0
rtoes 3.68613 0 0
lowerback 15.8296 0.421775 -4.62878
upperback -0.942564 0.0428656 3.22542
thorax -9.80831 0.378785 6.16637
lowerneck 3.14152 -14.003 -16.1176
upperneck 2.14774 -19.4592 13.4043
head 2.80112 -9.79643 5.80369
lclavicle 1.18985e-14 -1.6517e-14 0
lhumerus -45.8456 -43.3387 113.738
lradius 106.478 0 0
lwrist 70.2671 0 0
lhand 6.60693 401.877 0
lfingers 7.12502 0 0
lthumb 31.8036 -651.923 0
rclavicle 1.18985e-14 -1.6517e-14 0
rhumerus 14.6207 3.72202 -66.756
rradius 113.107 0 0
rwrist 18.7037 0 0
rhand -35.5315 -405.581 0
rfingers 7.12502 0 0
rthumb -8.65264 284.88 0
2454
root 2.85165 14.8053 -23.5555 925.484 84.4656 -152.448
lfemur -32.8943 20.8977 -13.1309
ltibia 73.3998 0 0
lfoot -27.4962 16.8414 0
ltoes -38.632 0 0
rfemur -40.4507 -22.1364 8.23421
rtibia 52.9246 0 0
rfoot 14.1771 0.624441 0
rtoes 4.2029 0 0
lowerback 15.8387 0.289206 -4.72515
upperback -0.951045 -0.142926 3.30815
thorax -9.81274 0.298679 6.35859
lowerneck 3.09687 -13.8724 -16.0371
upperneck 2.33532 -19.2869 13.2045
head 2.85831 -9.7119 5.73089
lclavicle 1.17809e-14 -1.78224e-14 0
lhumerus -46.0734 -43.7622 113.738
lradius 107.031 0 0
lwrist 71.1759 0 0
lhand 7.58113 401.907 0
lfingers 7.12502 0 0
lthumb 32.7386 -651.994 0
rclavicle 1.17809e-14 -1.78224e-14 0
rhumerus 12.5975 2.4651 -67.7471
rradius 112.535 0 0
rwrist 21.2381 0 0
rhand -36.1734 -405.81 0
rfingers 7.12502 0 0
rthumb -9.27243 284.657 0
